<?xml version="1.0" standalone="no"?>
<!DOCTYPE svg PUBLIC "-//W3C//DTD SVG 20010904//EN"
 "http://www.w3.org/TR/2001/REC-SVG-20010904/DTD/svg10.dtd">
<svg version="1.0" xmlns="http://www.w3.org/2000/svg"
 width="256.000000pt" height="256.000000pt" viewBox="0 0 256.000000 256.000000"
 preserveAspectRatio="xMidYMid meet">
<metadata>
Created by potrace 1.14, written by Peter Selinger 2001-2017
</metadata>
<g transform="translate(0.000000,256.000000) scale(0.100000,-0.100000)"
fill="#000000" stroke="none">
<path d="M1216 2483 c-3 -6 0 -14 7 -17 9 -3 8 -8 -3 -15 -13 -10 -13 -12 0
-21 9 -5 10 -10 3 -10 -13 0 -12 -18 1 -39 6 -10 5 -12 -2 -7 -7 4 -12 2 -12
-4 0 -6 -4 -9 -9 -6 -5 4 -12 0 -14 -6 -4 -10 -6 -10 -6 0 -1 6 -8 12 -17 12
-10 0 -15 -8 -14 -22 4 -41 1 -44 -50 -43 -27 0 -50 -3 -50 -8 0 -5 -6 -5 -13
1 -9 8 -12 3 -11 -24 2 -34 0 -35 -29 -34 -18 1 -49 2 -70 1 -36 -1 -38 -2
-34 -30 4 -23 1 -30 -15 -35 -16 -4 -18 -2 -9 7 6 6 11 16 11 22 0 5 -4 4 -9
-4 -8 -12 -12 -12 -25 -2 -11 9 -16 10 -16 2 0 -6 5 -11 10 -11 6 0 10 -4 10
-8 0 -5 -31 -8 -70 -7 -38 0 -70 -3 -70 -8 0 -4 -4 -5 -10 -2 -5 3 -10 1 -10
-4 0 -6 6 -11 13 -11 6 -1 2 -6 -11 -13 -12 -7 -20 -15 -18 -18 3 -3 -3 -5
-14 -5 -10 0 -16 4 -14 8 3 4 0 8 -5 8 -6 0 -11 -4 -11 -9 0 -7 -15 -8 -54 -2
-5 0 -6 4 -3 8 4 3 1 13 -6 21 -10 13 -9 14 2 8 9 -6 12 -5 9 5 -3 9 -23 13
-66 14 l-62 0 -1 -40 c0 -22 -2 -50 -3 -62 -3 -22 3 -26 44 -26 9 0 17 -9 17
-21 4 -45 8 -74 12 -71 2 2 12 -6 23 -18 11 -12 17 -16 13 -9 -7 13 11 17 19
4 2 -4 30 -8 62 -10 32 -1 60 -5 63 -8 11 -10 6 -371 -4 -371 -5 0 -17 -2 -25
-4 -9 -3 -14 3 -14 13 1 10 -3 15 -8 12 -5 -3 -7 -12 -4 -20 3 -8 2 -14 -2
-14 -4 0 -8 -12 -7 -27 0 -22 -5 -29 -24 -31 -17 -3 -21 0 -15 10 5 9 2 8 -11
-2 -10 -8 -20 -14 -22 -12 -1 1 -6 1 -10 1 -5 -1 -17 -1 -28 0 -15 2 -17 0 -6
-7 10 -7 10 -11 1 -17 -8 -5 -6 -10 6 -19 14 -11 12 -13 -20 -14 -103 -4 -137
-1 -130 10 3 4 7 16 9 26 3 16 -4 19 -37 20 -22 1 -44 4 -49 8 -5 3 -9 -1 -9
-8 0 -9 -3 -9 -10 2 -5 8 -10 13 -11 10 0 -3 -3 -14 -5 -25 -10 -39 -9 -70 1
-84 7 -11 7 -13 -2 -7 -7 4 -13 2 -13 -3 0 -6 4 -11 8 -11 12 0 9 -54 -3 -62
-5 -4 7 -5 28 -3 22 3 37 1 37 -5 0 -7 7 -7 21 1 16 8 20 8 14 0 -4 -8 2 -10
19 -7 15 3 24 1 21 -5 -4 -5 -11 -7 -16 -4 -5 4 -9 2 -9 -4 0 -5 4 -11 10 -13
5 -2 6 -9 1 -17 -7 -11 -12 -8 -23 13 -13 25 -16 26 -28 12 -11 -14 -10 -16 4
-10 14 5 20 -3 18 -26 0 -3 13 -6 29 -5 16 0 29 3 29 7 0 4 11 3 24 -2 14 -5
36 -7 50 -4 24 4 26 1 27 -28 1 -59 1 -181 -1 -269 l-3 -86 -28 2 c-23 2 -29
-2 -29 -17 0 -12 -4 -17 -13 -12 -9 6 -9 4 1 -7 17 -18 15 -28 -6 -28 -43 -1
-58 -5 -65 -15 -5 -8 -10 -6 -17 4 -9 13 -10 13 -10 0 0 -13 -1 -13 -10 0 -8
11 -9 9 -6 -10 3 -14 5 -28 5 -32 1 -5 10 1 21 12 12 12 25 18 31 14 7 -4 6
-11 -4 -21 -11 -11 -39 -16 -99 -17 l-83 -1 -5 30 c-5 29 -7 30 -55 29 -27 -1
-54 -2 -60 -3 -8 -1 -12 -90 -5 -113 1 -5 3 -11 4 -15 1 -5 7 -18 14 -29 6
-12 9 -23 7 -26 -3 -3 2 -5 10 -5 8 0 12 4 9 9 -3 4 0 8 5 8 6 0 11 -5 11 -11
0 -6 7 -9 14 -6 11 4 13 1 10 -11 -5 -15 -4 -15 8 -1 14 16 38 15 38 -3 0 -6
-6 -8 -14 -5 -8 3 -17 0 -20 -8 -3 -9 0 -12 10 -8 9 3 12 0 9 -8 -4 -10 6 -14
35 -16 29 -1 38 2 33 10 -4 8 -1 7 9 -1 9 -7 25 -12 35 -10 17 3 18 -11 23
-222 l5 -225 955 0 955 0 5 225 5 225 32 0 c17 0 35 3 39 7 4 4 12 4 18 -1 21
-18 31 -12 36 21 4 28 9 32 35 33 22 0 30 5 29 17 -2 18 19 20 44 5 16 -11 15
1 -2 19 -11 11 -16 11 -19 1 -4 -9 -6 -9 -6 1 -1 7 -6 10 -13 6 -6 -4 -8 -3
-5 4 8 12 25 11 46 -2 10 -6 12 -5 7 2 -4 7 -3 12 1 12 12 0 10 90 -2 91 -5 1
-14 0 -20 -1 -5 -1 -6 2 -2 7 5 4 13 8 18 8 5 0 9 4 9 9 0 6 -14 11 -30 12
-28 2 -30 1 -18 -14 11 -15 11 -15 -3 -5 -9 7 -20 9 -24 5 -5 -4 -5 -2 -2 4 4
7 -3 12 -18 12 -29 0 -46 -18 -18 -19 16 0 16 -1 -2 -9 -11 -5 -15 -9 -8 -9 7
-1 10 -7 7 -14 -3 -10 -25 -12 -82 -10 -116 5 -119 6 -119 22 0 49 -2 52 -23
41 -15 -8 -20 -8 -20 2 0 9 -3 9 -11 -2 -8 -12 -10 -10 -8 10 1 14 1 36 0 50
-1 20 -3 22 -11 10 -6 -10 -10 -11 -10 -2 0 6 -5 12 -11 12 -5 0 -7 -4 -4 -10
3 -5 2 -10 -4 -10 -19 0 -22 22 -23 173 0 236 -3 216 35 213 17 -2 40 1 50 6
11 6 17 5 17 -2 0 -7 6 -8 19 -1 10 6 20 9 22 6 2 -2 4 7 4 20 0 19 -3 21 -14
12 -11 -10 -13 -9 -9 3 3 10 16 14 36 13 22 -1 32 3 33 13 1 8 2 23 3 34 0 11
4 20 9 20 4 0 11 0 17 0 14 0 8 -23 -10 -37 -8 -7 -10 -13 -5 -13 6 -1 17 -3
26 -5 13 -2 16 4 13 31 -1 19 0 34 4 34 4 0 7 23 7 50 0 27 -4 50 -8 50 -5 0
-6 4 -2 9 3 6 -21 10 -58 10 l-64 0 3 -32 4 -32 -48 3 c-26 2 -58 4 -72 5 -14
2 -31 -1 -38 -7 -9 -6 -12 -6 -10 4 2 7 -3 15 -11 18 -9 3 -11 0 -6 -8 6 -9 4
-11 -4 -5 -8 5 -9 11 -3 17 5 5 8 17 5 27 -3 13 -13 17 -39 14 -31 -2 -35 0
-34 20 3 37 0 48 -10 42 -5 -3 -10 -1 -10 4 0 6 -5 11 -11 11 -5 0 -8 -4 -5
-8 3 -5 -1 -9 -9 -9 -8 0 -12 4 -9 8 2 4 -2 9 -8 12 -10 3 -10 7 1 20 7 10 9
17 5 17 -5 0 -9 74 -9 165 l0 165 65 0 c50 1 71 5 89 21 20 16 22 22 11 32 -8
8 -11 8 -7 1 8 -15 -19 -39 -27 -25 -10 16 21 38 52 36 24 -1 29 2 24 14 -5
14 -3 14 11 2 11 -9 17 -10 17 -2 0 6 -4 12 -10 12 -5 1 -14 2 -19 3 -14 2
-26 16 -13 16 6 0 13 8 15 18 4 15 5 15 6 1 1 -17 29 -34 39 -24 3 3 0 5 -6 5
-7 0 -12 5 -12 11 0 5 5 7 10 4 6 -4 10 18 10 59 0 36 -3 66 -7 67 -11 2 -63
2 -95 0 -23 -1 -27 -5 -25 -28 2 -22 -2 -27 -17 -25 -12 2 -15 -1 -11 -8 5 -9
2 -9 -11 -2 -11 5 -27 8 -36 7 -10 -2 -18 1 -18 6 0 6 -4 8 -8 5 -4 -2 -14 -1
-22 4 -13 8 -13 11 -1 22 8 7 11 8 8 2 -3 -6 0 -11 8 -11 11 0 12 4 5 13 -15
17 -50 25 -50 11 0 -8 -3 -8 -8 -2 -4 6 -25 10 -47 10 -26 0 -44 6 -53 18 -7
9 -19 17 -25 17 -7 0 -4 -5 6 -11 17 -10 15 -29 -4 -29 -6 0 -7 5 -4 10 3 6 1
10 -4 10 -6 0 -12 -6 -12 -12 -1 -7 -5 3 -8 22 -4 19 -11 34 -17 33 -6 -1 -27
2 -47 7 -20 4 -35 4 -32 0 5 -9 -46 3 -64 14 -5 3 -12 1 -14 -4 -3 -6 -4 -5
-2 2 3 14 9 14 37 3 15 -6 16 -4 5 18 -8 17 -14 22 -19 14 -5 -8 -8 -7 -8 3 0
9 -9 16 -19 16 -11 0 -17 -5 -14 -11 3 -5 0 -4 -8 3 -16 15 -43 16 -34 1 5 -6
0 -6 -12 1 -12 8 -18 22 -17 40 2 25 -1 27 -30 26 -23 -1 -31 3 -31 16 0 9 -4
20 -8 24 -4 4 -3 12 3 19 5 6 6 24 2 40 -8 27 -11 29 -65 29 -35 1 -59 -4 -61
-11z m110 -28 c1 -8 -1 -17 -5 -19 -4 -3 -7 6 -7 19 0 25 8 25 12 0z m-56 -11
c0 -8 -19 -13 -24 -6 -3 5 1 9 9 9 8 0 15 -2 15 -3z m-60 -118 c0 -2 -7 -7
-16 -10 -8 -3 -12 -2 -9 4 6 10 25 14 25 6z m-140 -46 c0 -5 -5 -10 -11 -10
-5 0 -7 5 -4 10 3 6 8 10 11 10 2 0 4 -4 4 -10z m430 6 c0 -2 -8 -10 -17 -17
-16 -13 -17 -12 -4 4 13 16 21 21 21 13z m-413 -32 c-3 -3 -12 -4 -19 -1 -8 3
-5 6 6 6 11 1 17 -2 13 -5z m563 -48 c0 -2 -7 -7 -16 -10 -8 -3 -12 -2 -9 4 6
10 25 14 25 6z m-1165 -66 c3 -5 1 -10 -4 -10 -6 0 -11 5 -11 10 0 6 2 10 4
10 3 0 8 -4 11 -10z m262 -5 c0 -8 -4 -12 -9 -9 -5 3 -6 10 -3 15 9 13 12 11
12 -6z m1301 -20 c-3 -3 -9 2 -12 12 -6 14 -5 15 5 6 7 -7 10 -15 7 -18z
m-1338 11 c0 -3 -4 -8 -10 -11 -5 -3 -10 -1 -10 4 0 6 5 11 10 11 6 0 10 -2
10 -4z m-164 -153 c-3 -8 -2 -12 2 -10 4 3 16 1 27 -3 17 -6 17 -7 -7 -12 -20
-4 -29 0 -36 17 -8 17 -7 22 4 22 9 0 13 -6 10 -14z m29 7 c3 -5 1 -10 -4 -10
-6 0 -11 5 -11 10 0 6 2 10 4 10 3 0 8 -4 11 -10z m1369 -38 c3 -5 -1 -9 -9
-9 -8 0 -12 4 -9 9 3 4 7 8 9 8 2 0 6 -4 9 -8z m-1370 -493 c-3 -5 -9 -7 -14
-4 -4 3 -10 -1 -13 -7 -2 -7 -8 -10 -12 -5 -5 4 0 14 11 21 20 15 39 12 28 -5z
m1631 -9 c3 -5 1 -10 -4 -10 -6 0 -11 5 -11 10 0 6 2 10 4 10 3 0 8 -4 11 -10z
m-1635 -20 c0 -5 -4 -10 -10 -10 -5 0 -10 5 -10 10 0 6 5 10 10 10 6 0 10 -4
10 -10z m-284 -86 c-5 -14 -4 -15 9 -4 8 7 15 11 16 9 7 -34 6 -37 -9 -32 -10
4 -13 2 -8 -5 4 -8 2 -10 -7 -6 -11 4 -16 36 -8 52 5 11 12 -2 7 -14z m-132
-612 c3 -5 -1 -9 -9 -9 -8 0 -12 4 -9 9 3 4 7 8 9 8 2 0 6 -4 9 -8z m2261 -2
c3 -6 -1 -7 -9 -4 -18 7 -21 14 -7 14 6 0 13 -4 16 -10z m-2295 -91 c12 -8 10
-9 -9 -4 -16 5 -21 4 -17 -4 4 -6 15 -11 24 -11 14 0 15 -2 3 -9 -10 -7 -19
-4 -27 7 -20 27 -3 41 26 21z"/>
<path d="M1425 2340 c-3 -6 1 -7 9 -4 18 7 21 14 7 14 -6 0 -13 -4 -16 -10z"/>
<path d="M839 2228 c14 -19 32 -15 30 5 0 8 -2 8 -6 -1 -4 -10 -8 -10 -21 0
-15 12 -16 11 -3 -4z"/>
<path d="M1887 2164 c6 -15 23 -19 23 -5 0 5 -7 11 -14 14 -10 4 -13 1 -9 -9z"/>
<path d="M615 2161 c-3 -5 -2 -12 3 -15 5 -3 9 1 9 9 0 17 -3 19 -12 6z"/>
<path d="M645 2151 c2 -18 25 -28 25 -11 0 6 4 8 10 5 5 -3 7 0 4 9 -7 19 -42
17 -39 -3z"/>
<path d="M1906 2145 c-11 -8 -14 -15 -8 -15 20 0 26 4 28 18 3 15 3 15 -20 -3z"/>
<path d="M1951 2147 c-8 -10 -7 -14 2 -14 8 0 14 6 14 14 0 7 -1 13 -2 13 -2
0 -8 -6 -14 -13z"/>
<path d="M479 2038 c-1 -2 -3 -16 -4 -33 -2 -16 -1 -24 2 -17 3 6 10 9 16 6 9
-5 9 -4 0 6 -6 7 -9 19 -6 26 4 11 -4 22 -8 12z"/>
<path d="M2035 1939 c-4 -6 -5 -12 -2 -15 2 -3 7 2 10 11 7 17 1 20 -8 4z"/>
<path d="M673 1585 c0 -8 4 -15 9 -15 4 0 8 4 8 9 0 6 -4 12 -8 15 -5 3 -9 -1
-9 -9z"/>
<path d="M1868 1563 c7 -3 16 -2 19 1 4 3 -2 6 -13 5 -11 0 -14 -3 -6 -6z"/>
<path d="M2006 1462 c-8 -13 7 -29 27 -29 9 0 15 3 12 5 -3 3 -1 10 5 16 6 8
1 12 -15 14 -13 1 -26 -2 -29 -6z m34 -8 c0 -8 -19 -13 -24 -6 -3 5 1 9 9 9 8
0 15 -2 15 -3z"/>
<path d="M2210 1266 c0 -2 8 -10 18 -17 15 -13 16 -12 3 4 -13 16 -21 21 -21
13z"/>
<path d="M2209 1237 c6 -8 7 -18 3 -22 -4 -5 -1 -5 6 -1 10 6 10 11 1 22 -6 8
-14 14 -16 14 -3 0 0 -6 6 -13z"/>
<path d="M454 858 c-4 -7 -4 -10 1 -6 4 4 15 2 24 -5 14 -11 14 -10 2 6 -16
20 -18 21 -27 5z"/>
<path d="M2183 750 c3 -17 10 -25 23 -25 10 1 22 -4 27 -10 4 -5 5 3 3 19 -5
29 -16 48 -16 28 0 -14 -21 -12 -33 3 -4 6 -5 -1 -4 -15z m42 -9 c-9 -8 -36
-10 -30 -2 2 4 11 8 20 8 8 0 13 -3 10 -6z"/>
<path d="M66 597 c3 -10 9 -15 12 -12 3 3 0 11 -7 18 -10 9 -11 8 -5 -6z"/>
<path d="M2450 586 c0 -2 7 -7 16 -10 8 -3 12 -2 9 4 -6 10 -25 14 -25 6z"/>
<path d="M2380 560 c0 -6 7 -10 15 -10 8 0 15 2 15 4 0 2 -7 6 -15 10 -8 3
-15 1 -15 -4z"/>
<path d="M2400 533 c-14 -7 -18 -13 -10 -13 17 0 47 17 40 23 -3 2 -16 -2 -30
-10z"/>
<path d="M135 530 c3 -5 8 -10 11 -10 2 0 4 5 4 10 0 6 -5 10 -11 10 -5 0 -7
-4 -4 -10z"/>
</g>
</svg>
